<svg width="125" height="25" viewBox="0 0 125 25" fill="none" xmlns="http://www.w3.org/2000/svg">
<path d="M12.8138 6.43582C12.8138 7.4272 12.5902 8.33731 12.1431 9.16617C11.696 9.97877 11.0094 10.637 10.0833 11.1408C9.15724 11.6446 8.0076 11.8965 6.63441 11.8965H4.09561V18.0398H0V0.926368H6.63441C7.97566 0.926368 9.10934 1.16202 10.0354 1.63333C10.9615 2.10464 11.6561 2.75472 12.1192 3.58358C12.5822 4.41244 12.8138 5.36318 12.8138 6.43582ZM6.32305 8.58109C7.10545 8.58109 7.68825 8.3942 8.07147 8.0204C8.45468 7.6466 8.64629 7.11841 8.64629 6.43582C8.64629 5.75323 8.45468 5.22504 8.07147 4.85124C7.68825 4.47745 7.10545 4.29055 6.32305 4.29055H4.09561V8.58109H6.32305Z" fill="white"/>
<path d="M20.3828 18.2348C19.2172 18.2348 18.1793 18.0317 17.2692 17.6254C16.3591 17.2191 15.6405 16.6665 15.1136 15.9677C14.5867 15.2526 14.2913 14.4562 14.2274 13.5786H18.2751C18.323 14.0499 18.5386 14.4318 18.9218 14.7244C19.305 15.0169 19.776 15.1632 20.3349 15.1632C20.8459 15.1632 21.2371 15.0657 21.5085 14.8706C21.7959 14.6594 21.9396 14.3912 21.9396 14.0662C21.9396 13.6761 21.74 13.3917 21.3408 13.2129C20.9417 13.0179 20.295 12.8066 19.4008 12.5791C18.4428 12.3516 17.6444 12.1159 17.0057 11.8721C16.367 11.6121 15.8162 11.2139 15.3531 10.6776C14.8901 10.125 14.6585 9.38557 14.6585 8.4592C14.6585 7.6791 14.8661 6.97214 15.2813 6.33831C15.7124 5.68823 16.3351 5.17628 17.1494 4.80249C17.9797 4.42869 18.9617 4.24179 20.0954 4.24179C21.772 4.24179 23.0893 4.66434 24.0473 5.50945C25.0213 6.35456 25.5802 7.47595 25.7239 8.87363H21.9396C21.8758 8.40232 21.6682 8.02852 21.3169 7.75224C20.9816 7.47595 20.5345 7.33781 19.9756 7.33781C19.4966 7.33781 19.1294 7.43532 18.8739 7.63035C18.6184 7.80912 18.4907 8.06103 18.4907 8.38607C18.4907 8.77612 18.6903 9.06866 19.0895 9.26368C19.5046 9.45871 20.1433 9.65373 21.0055 9.84875C21.9955 10.1088 22.8019 10.3688 23.4246 10.6289C24.0473 10.8726 24.5902 11.2789 25.0532 11.8478C25.5323 12.4003 25.7798 13.1479 25.7957 14.0905C25.7957 14.8869 25.5722 15.602 25.1251 16.2358C24.694 16.8534 24.0633 17.341 23.233 17.6985C22.4186 18.0561 21.4686 18.2348 20.3828 18.2348Z" fill="white"/>
<path d="M41.9534 4.43682L33.5706 24.5H29.1636L32.2294 17.5766L26.7925 4.43682H31.3671L34.4568 12.9448L37.5225 4.43682H41.9534Z" fill="white"/>
<path d="M42.6201 11.2383C42.6201 9.82438 42.8996 8.58922 43.4584 7.53283C44.0332 6.47645 44.8236 5.66385 45.8296 5.09502C46.8515 4.5262 48.0171 4.24179 49.3264 4.24179C51.003 4.24179 52.4001 4.68872 53.5178 5.58259C54.6515 6.47645 55.394 7.73599 55.7452 9.36119H51.3862C51.0189 8.32106 50.3084 7.80099 49.2545 7.80099C48.5041 7.80099 47.9053 8.10166 47.4582 8.70298C47.0111 9.28806 46.7876 10.1332 46.7876 11.2383C46.7876 12.3434 47.0111 13.1967 47.4582 13.798C47.9053 14.3831 48.5041 14.6756 49.2545 14.6756C50.3084 14.6756 51.0189 14.1556 51.3862 13.1154H55.7452C55.394 14.7081 54.6515 15.9595 53.5178 16.8696C52.3841 17.7798 50.987 18.2348 49.3264 18.2348C48.0171 18.2348 46.8515 17.9504 45.8296 17.3816C44.8236 16.8128 44.0332 16.0002 43.4584 14.9438C42.8996 13.8874 42.6201 12.6522 42.6201 11.2383Z" fill="white"/>
<path d="M66.1512 4.29055C67.684 4.29055 68.9135 4.81061 69.8396 5.85075C70.7657 6.87463 71.2288 8.28856 71.2288 10.0925V18.0398H67.1571V10.6532C67.1571 9.74312 66.9256 9.03615 66.4625 8.53234C65.9995 8.02852 65.3768 7.77662 64.5944 7.77662C63.812 7.77662 63.1892 8.02852 62.7262 8.53234C62.2631 9.03615 62.0316 9.74312 62.0316 10.6532V18.0398H57.936V0H62.0316V6.26517C62.4468 5.66385 63.0136 5.18441 63.7321 4.82686C64.4507 4.46932 65.257 4.29055 66.1512 4.29055Z" fill="white"/>
<path d="M80.1584 18.2348C78.849 18.2348 77.6674 17.9504 76.6136 17.3816C75.5757 16.8128 74.7534 16.0002 74.1467 14.9438C73.5559 13.8874 73.2605 12.6522 73.2605 11.2383C73.2605 9.84063 73.5639 8.6136 74.1706 7.55721C74.7774 6.48458 75.6077 5.66385 76.6615 5.09502C77.7154 4.5262 78.8969 4.24179 80.2063 4.24179C81.5156 4.24179 82.6972 4.5262 83.751 5.09502C84.8048 5.66385 85.6351 6.48458 86.2419 7.55721C86.8486 8.6136 87.152 9.84063 87.152 11.2383C87.152 12.636 86.8407 13.8711 86.2179 14.9438C85.6112 16.0002 84.7729 16.8128 83.7031 17.3816C82.6492 17.9504 81.4677 18.2348 80.1584 18.2348ZM80.1584 14.6269C80.9408 14.6269 81.6034 14.3343 82.1463 13.7493C82.7051 13.1642 82.9846 12.3272 82.9846 11.2383C82.9846 10.1494 82.7131 9.31244 82.1702 8.72736C81.6433 8.14229 80.9886 7.84975 80.2063 7.84975C79.4079 7.84975 78.7453 8.14229 78.2183 8.72736C77.6914 9.29618 77.4279 10.1332 77.4279 11.2383C77.4279 12.3272 77.6834 13.1642 78.1944 13.7493C78.7213 14.3343 79.376 14.6269 80.1584 14.6269Z" fill="white"/>
<path d="M99.564 15.0168H93.2889L92.2829 18.0397H87.9957L94.0793 0.92627H98.8216L104.905 18.0397H100.57L99.564 15.0168ZM98.5102 11.7989L96.4265 5.53373L94.3667 11.7989H98.5102Z" fill="url(#paint0_linear_57_54)"/>
<path d="M110.852 6.70388C111.331 5.95629 111.93 5.37121 112.649 4.94866C113.367 4.50985 114.165 4.29045 115.044 4.29045V8.70289H113.918C112.896 8.70289 112.13 8.93042 111.619 9.38547C111.108 9.82428 110.852 10.6044 110.852 11.7258V18.0397H106.757V4.43672H110.852V6.70388Z" fill="url(#paint1_linear_57_54)"/>
<path d="M124.45 14.5049V18.0397H122.366C120.881 18.0397 119.724 17.674 118.893 16.9427C118.063 16.1951 117.648 14.9843 117.648 13.3103V7.89841H116.019V4.43672H117.648V1.12129H121.744V4.43672H124.426V7.89841H121.744V13.3591C121.744 13.7654 121.839 14.0579 122.031 14.2367C122.223 14.4155 122.542 14.5049 122.989 14.5049H124.45Z" fill="url(#paint2_linear_57_54)"/>
<defs>
<linearGradient id="paint0_linear_57_54" x1="118.982" y1="0.926269" x2="111.808" y2="23.5639" gradientUnits="userSpaceOnUse">
<stop stop-color="#B75CFF"/>
<stop offset="1" stop-color="#671AE4"/>
</linearGradient>
<linearGradient id="paint1_linear_57_54" x1="118.982" y1="0.926269" x2="111.808" y2="23.5639" gradientUnits="userSpaceOnUse">
<stop stop-color="#B75CFF"/>
<stop offset="1" stop-color="#671AE4"/>
</linearGradient>
<linearGradient id="paint2_linear_57_54" x1="118.982" y1="0.926269" x2="111.808" y2="23.5639" gradientUnits="userSpaceOnUse">
<stop stop-color="#B75CFF"/>
<stop offset="1" stop-color="#671AE4"/>
</linearGradient>
</defs>
</svg>
